PathFileType	4	(X/Y/Z)	C:\Users\xlb\Desktop\20210112\20210112\bx_n_10_902.trc
DataRate	CameraRate	NumFrames	NumMarkers	Units	OrigDataRate	OrigDataStartFrame	OrigNumFrames
50.00	50.00	       5	43	mm	50.00	303	       484
Frame#	Time	Top.Head			R.Acromium			L.Acromium			Sternum			R.ASIS			L.ASIS			V.Sacral			R.Thigh.Upper			R.Thigh.Front			R.Thigh.Rear			R.Knee.Lat			R.Knee.Med			R.Shank.Upper			R.Shank.Front			R.Shank.Rear			R.Ankle.Lat			R.Midfoot.Lat			R.Toe.Lat			R.Toe.Tip			R.Toe.Med			R.Ankle.Med			R.Midfoot.Sup			R.Heel			L.Thigh.Upper			L.Thigh.Front			L.Thigh.Rear			L.Knee.Lat			L.Knee.Med			L.Shank.Upper			L.Shank.Front			L.Shank.Rear			L.Ankle.Lat			L.Midfoot.Lat			L.Toe.Lat			L.Toe.Tip			L.Toe.Med			L.Ankle.Med			L.Midfoot.Sup			L.Heel			origin1 front left			origin2 front right			origin 3 back right			origin 4 back leftt			
		X1	Y1	Z1	X2	Y2	Z2	X3	Y3	Z3	X4	Y4	Z4	X5	Y5	Z5	X6	Y6	Z6	X7	Y7	Z7	X8	Y8	Z8	X9	Y9	Z9	X10	Y10	Z10	X11	Y11	Z11	X12	Y12	Z12	X13	Y13	Z13	X14	Y14	Z14	X15	Y15	Z15	X16	Y16	Z16	X17	Y17	Z17	X18	Y18	Z18	X19	Y19	Z19	X20	Y20	Z20	X21	Y21	Z21	X22	Y22	Z22	X23	Y23	Z23	X24	Y24	Z24	X25	Y25	Z25	X26	Y26	Z26	X27	Y27	Z27	X28	Y28	Z28	X29	Y29	Z29	X30	Y30	Z30	X31	Y31	Z31	X32	Y32	Z32	X33	Y33	Z33	X34	Y34	Z34	X35	Y35	Z35	X36	Y36	Z36	X37	Y37	Z37	X38	Y38	Z38	X39	Y39	Z39	X40	Y40	Z40	X41	Y41	Z41	X42	Y42	Z42	X43	Y43	Z43	

303	6.040	-138.98743	109.00433	1218.36816	-375.06128	-66.50997	1065.39905	-385.84659	254.43498	1073.52075	-538.99292	79.01804	985.01587	-791.69928	-15.35711	973.80463	-794.16675	230.97870	994.90491	-957.40906	82.43439	1091.70129	-869.22510	-82.54288	854.36884	-779.30792	-14.31433	800.19391	-861.76141	-72.20732	739.28204	-842.07538	-41.17978	603.55884	-818.61237	67.19962	563.09656	-837.08691	-38.33722	554.31067	-772.85840	11.93075	523.70142	-853.58472	-50.05593	465.82648	-762.59363	-21.80057	201.33278	-648.10370	-67.96931	160.83542	-606.87958	-75.59705	157.24939	-549.17560	-27.35460	163.21687	-596.94415	26.09983	167.10094	-727.02374	65.35200	219.95905	-670.96802	52.09966	163.16896	-791.36499	39.38023	171.93034	-896.26758	280.31924	859.54077	-783.79797	207.32030	811.28027	-867.73218	276.60361	725.10822	-865.32898	249.80077	622.09747	-809.80505	141.37299	567.33704	-847.17963	244.72046	560.16815	-782.44727	204.08827	535.70343	-863.81403	258.29242	480.96796	-772.98169	231.15291	201.73982	-659.07227	299.08835	156.51907	-622.14081	306.41141	158.18913	-557.24768	253.54211	163.19565	-593.67206	218.92279	173.25406	-721.64825	158.59140	223.28551	-675.92236	176.19063	163.79266	-798.71680	183.59596	179.82007	-527.97522	303.87540	146.23947	-518.04364	-72.68314	142.85652	-875.90289	-78.62859	141.31247	-882.83875	295.73959	144.62158	
304	6.060	-136.97076	108.37585	1203.86816	-371.81503	-65.66949	1052.78552	-383.48346	253.54065	1061.38916	-537.95337	79.26650	978.47217	-792.17004	-15.04375	972.48175	-794.94879	231.10335	993.62445	-956.96143	82.37407	1092.10535	-869.95135	-82.52796	854.36285	-780.16248	-14.22468	800.33221	-862.53766	-71.93223	739.21771	-842.72723	-40.89111	603.57031	-819.63348	66.98523	562.75848	-837.66174	-37.90211	554.32166	-773.39130	11.92953	523.70465	-854.02136	-49.49158	465.86618	-762.41248	-21.36368	201.48763	-648.00891	-67.82120	160.97287	-606.94067	-75.55901	157.26996	-549.09485	-27.39525	163.12354	-596.81573	26.28257	166.97029	-726.96082	65.48253	220.04652	-670.98566	51.95048	163.04231	-791.22858	39.72588	172.13080	-897.09338	280.68835	859.68158	-784.64392	207.29260	811.43195	-868.19250	277.01990	725.17938	-865.33557	249.75575	622.23254	-810.11407	140.99417	567.79327	-846.92065	244.56409	560.39813	-782.35339	203.62950	536.09943	-863.36725	258.39337	481.31744	-772.70624	231.16798	202.13278	-658.87390	298.83328	156.80507	-622.05774	306.24799	158.37424	-557.16925	253.45883	163.10831	-593.61292	218.73405	173.12914	-721.65210	158.59494	223.49171	-675.88403	176.06087	164.03439	-798.64917	183.71695	180.29185	-527.98047	303.86258	146.24619	-518.04449	-72.66396	142.82396	-875.93872	-78.58497	141.23294	-882.79889	295.78052	144.63150	
305	6.080	-135.23853	107.58169	1189.71790	-368.59232	-64.82738	1040.48413	-381.26974	252.59039	1049.49512	-536.91644	79.53157	972.11633	-792.64459	-14.80945	971.07813	-795.74176	231.05463	992.27655	-956.46216	82.31323	1092.40259	-870.62732	-82.56328	854.32373	-780.84534	-14.17379	800.46747	-863.32495	-71.71033	739.13422	-843.36713	-40.57750	603.53680	-820.50000	66.75984	562.37280	-838.21472	-37.45347	554.24078	-773.86450	12.05805	523.69666	-854.43610	-48.83513	465.83496	-762.28729	-20.95094	201.60417	-647.90259	-67.68320	161.11339	-607.02393	-75.49329	157.24814	-549.07397	-27.46383	163.08629	-596.71448	26.46663	166.88866	-726.85797	65.63459	220.15891	-671.04224	51.81323	162.95110	-791.13257	40.10991	172.33932	-897.63318	281.16156	859.92999	-785.22321	207.26324	811.74231	-868.25891	277.36438	725.40057	-865.05798	249.75436	622.45313	-810.34570	140.62622	568.25720	-846.45154	244.46521	560.60168	-782.11554	203.17587	536.47522	-862.74988	258.61081	481.75427	-772.38574	231.34995	202.52875	-658.67822	298.54468	157.13785	-621.93610	306.13132	158.53055	-557.07544	253.31383	162.98830	-593.53326	218.45219	172.98199	-721.72583	158.63664	223.67691	-675.90637	175.97591	164.15802	-798.54138	183.98816	180.68404	-527.99554	303.85776	146.27435	-518.06134	-72.66555	142.78906	-875.98163	-78.52142	141.13477	-882.75372	295.82773	144.63434	
306	6.100	-133.71985	106.73016	1175.91284	-365.40018	-63.98766	1028.49939	-379.21014	251.70183	1037.95190	-535.88293	79.81253	965.95056	-793.04230	-14.83803	969.63269	-796.48169	230.73625	990.70508	-955.88495	82.32968	1092.61377	-871.30603	-82.64845	854.14355	-781.33746	-13.99642	800.57947	-864.15497	-71.62319	738.97534	-844.02698	-40.28587	603.43604	-821.21313	66.54946	561.97174	-838.75116	-37.06118	554.04443	-774.33569	12.34803	523.67047	-854.83008	-48.22739	465.69827	-762.25537	-20.65527	201.63858	-647.80249	-67.53836	161.24773	-607.13214	-75.41220	157.18765	-549.11780	-27.55216	163.11884	-596.68817	26.61230	166.82582	-726.72137	65.80482	220.29193	-671.12219	51.70113	162.89371	-791.11108	40.47133	172.47220	-897.78546	281.59317	860.16132	-785.47638	207.21577	812.00415	-867.95728	277.53528	725.60931	-864.70105	249.82573	622.65924	-810.57080	140.38918	568.55035	-845.96936	244.48152	560.70709	-781.93445	202.77910	536.68768	-862.18884	258.87949	482.12073	-772.12238	231.70055	202.78813	-658.55743	298.32214	157.40857	-621.78998	306.02823	158.57004	-556.99298	253.13699	162.87701	-593.47290	218.14098	172.83281	-721.85443	158.67154	223.81004	-676.00800	175.95537	164.13501	-798.47711	184.36916	180.92319	-528.00055	303.87775	146.31140	-518.08862	-72.67265	142.76193	-876.02423	-78.46725	141.06792	-882.71271	295.86276	144.62958	
307	6.120	-132.35687	105.90591	1162.47656	-362.24329	-63.15305	1016.83795	-377.26282	250.95256	1026.84106	-534.85339	80.10867	959.97748	-793.26642	-15.22926	968.19269	-797.08105	230.24223	988.92578	-955.23706	82.41258	1092.79736	-871.98511	-82.73082	853.78162	-781.56384	-13.51523	800.65979	-864.93774	-71.65925	738.67566	-844.63495	-40.05056	603.26093	-821.77686	66.37921	561.58545	-839.20288	-36.76765	553.75708	-774.78552	12.71997	523.57745	-855.15564	-47.80211	465.46561	-762.29492	-20.49035	201.59929	-647.72888	-67.34319	161.37459	-607.24298	-75.31643	157.07915	-549.18103	-27.63122	163.17751	-596.70581	26.75175	166.74358	-726.55750	65.98970	220.44119	-671.21014	51.62593	162.86870	-791.15173	40.73461	172.47426	-897.64862	281.96686	860.27570	-785.49628	207.15100	812.03857	-867.49408	277.56879	725.65472	-864.46094	249.95924	622.76886	-810.78735	140.31830	568.61078	-845.60669	244.62061	560.74060	-781.87134	202.49649	536.69348	-861.85187	259.08630	482.31540	-772.00946	232.10805	202.87477	-658.51648	298.21588	157.52779	-621.65619	305.91330	158.50974	-556.93469	252.96681	162.81013	-593.46228	217.86957	172.70787	-721.97723	158.68195	223.87177	-676.15497	175.96187	164.03227	-798.51135	184.73169	181.01686	-527.99139	303.92072	146.33696	-518.09973	-72.67882	142.74873	-876.04614	-78.41324	141.04921	-882.68060	295.87158	144.61697	
